<?xml version="1.0" encoding="UTF-8" standalone="no"?>
<!DOCTYPE svg PUBLIC "-//W3C//DTD SVG 1.1//EN" "http://www.w3.org/Graphics/SVG/1.1/DTD/svg11.dtd">
<svg width="100%" height="100%" viewBox="0 0 556 487" version="1.1" xmlns="http://www.w3.org/2000/svg" xmlns:xlink="http://www.w3.org/1999/xlink" xml:space="preserve" xmlns:serif="http://www.serif.com/" style="fill-rule:evenodd;clip-rule:evenodd;stroke-linejoin:round;stroke-miterlimit:2;">
    <g>
        <path d="M425.05,76.45C430.45,65.62 443.75,66.81 445.81,77.14C447.62,86.26 437.89,95.14 432.75,101.3C429.9,104.73 425.52,110.15 427.75,114.91C430.25,120.23 436.61,120.08 440.94,117.27C444.85,114.73 447.83,110.96 450.94,107.59C453.26,105.1 457.85,98.42 460.13,96.1C470.32,84.83 481.66,72.99 497.73,71.84C516.57,70.5 535.23,88.25 523.46,106.97C514.6,121.06 499.46,124.48 488.54,128.44C482.3,130.7 474.66,132.59 469.36,136.76C465.36,139.91 457.77,148.52 462.64,153.57C474.08,156.91 484.9,150.36 493.99,144.57C501.73,139.66 514.23,134.93 520.92,144.35C527.92,154.22 522.65,162.83 511.92,167.08C504.01,170.21 480.98,169.69 484.55,179.48C489.16,192.16 519.19,185.2 522.23,183.73C527.91,180.99 535.46,177.79 539.72,183.65C547.01,193.65 534.86,201.99 529.63,209.87C522.63,220.44 544.89,218.57 543.9,228.59C543.18,235.88 541.98,242.45 535.99,247.44C529.73,252.65 532.85,261.97 548.29,270.59C554.91,273.87 555.63,277.06 555.23,283.59C554.73,291.78 551.3,299.35 543.7,302C521.41,309.76 510.06,286.15 491.84,279.85C484.24,277.22 474.38,281.31 473.47,290.01C472.62,298.14 477.41,303.01 485.17,308.19C523.85,322.61 514.17,343.95 510.25,350.19C504.52,359.45 494.25,364.55 484.46,357.51C475.85,351.3 456.79,314.63 445.73,326.92C426.79,347.92 454.56,370.86 457.73,373.78C465.09,380.51 469.73,394.78 468.36,406.03C467.11,416.52 464.15,426.4 454.82,432.19C445.49,437.98 432.82,438.79 423.02,433.41C413.81,428.41 407.44,418.94 403.9,409.22C401.9,403.62 401.21,397.4 400.34,391.54C399.95,388.93 396.4,354.93 380.03,366.91C367.67,375.61 380.62,394.65 381.7,396.17C399.34,420.89 390.42,431.12 387.56,434.17C380.56,442.57 365.32,447.17 356.06,439.81C344.91,430.98 352.61,416.3 350.98,404.37C350.43,400.28 348.24,393.48 343.46,392.37C339.58,391.48 337.37,396.56 336.08,399.37C333.95,404.03 332.76,410.89 332.67,415.96C332.478,419.765 332.815,423.578 333.67,427.29C336.67,441.95 355.67,479.49 331.16,485.8C320.47,488.56 310.63,482.13 308.99,471.19C307.945,465.052 307.587,458.817 307.92,452.6C308.34,447.04 308.4,436.14 301.06,436.9C291.83,437.85 293.36,473.72 272.74,465.37C255.74,458.49 277.48,427.99 268.88,417.05C268.555,416.527 268.025,416.164 267.42,416.05C263.22,416.95 261.89,424.32 260.26,427.61C258.208,432.098 255.535,436.276 252.32,440.02C246.5,446.34 230.42,451.95 224.82,442.13C221.65,436.55 226.41,430.58 230.01,426.5C234.25,421.36 236.37,417.16 239.36,412.4C241.48,409.04 247.48,395.2 238.58,392.22C226.09,388.05 200.89,456.28 200.12,457.85C192.78,472.85 186.2,479.03 173.37,484.39C159.957,488.52 145.367,482.464 138.82,470.05C132.14,457.54 137.63,442.39 145.58,431.72C150.124,425.744 155.514,420.462 161.58,416.04C165.02,413.57 205.58,388.48 190.23,375.9C182.01,369.14 158,388.62 148.48,393.1C138.05,398.02 122.43,392.26 125.95,378.76C126.66,376.02 130.13,367.81 127.84,365.47C123.84,361.33 115.91,369.19 112.59,370.91C102.34,376.21 89.72,379.63 80.86,370.19C73.09,361.9 74.58,347.19 81.66,338.72C87.2,331.85 92.66,324.54 101.09,320.33C106.23,317.76 128.09,304.84 120.09,298.81C112.89,293.35 103.26,303.33 95.03,302.92C87.34,302.54 77.94,297.84 79.77,288.54C81.87,277.83 91.86,274.94 100.7,271.31C108.21,268.22 119.92,258.91 113.4,250.95C103.64,239.04 85.82,260.85 78.64,267.48C67.05,278.18 55.32,288.8 42.15,297.48C31.63,304.42 14.75,311.37 4.59,299.92C-4.67,289.49 -0.74,267.98 22.39,251.44C30,246 40.04,242.64 48.94,240.05C67.65,234.62 87.83,238.6 102.77,225.05C108.59,219.8 101.9,217.22 99.46,216.77C95.99,216.14 79.15,214.5 79.13,203.46C79.13,197.68 77.65,192.67 83.02,189.01C88.39,185.35 95.78,185.57 101.91,183.4C106.91,181.62 112.91,178.88 116.98,175.34C119.81,172.87 121.38,167.58 116.33,163.34C108.87,157.47 107.41,155.98 100.6,153C93.44,149.85 87.51,147.89 83.6,140.63C76.35,127.29 81.77,110.47 94.6,103.36C108.24,95.83 118.8,101.93 127.89,112.95C130.49,116.09 132.89,119.37 136.4,123.01C137.1,123.74 145.78,133.42 157.72,128.44C160.8,126.88 173.97,123.51 162.11,110.89C157,105.46 152.39,100.39 148.78,93.97C142.92,83.52 147.33,69.52 160.95,69.6C177.2,69.66 181.14,111.75 192.66,95.89C199.66,83.78 169.1,67.42 163.85,49.38C161.28,40.53 161.77,30.45 168.17,23.38C173.497,17.425 182.509,16.328 189.11,20.83C191.29,22.453 193.013,24.614 194.11,27.1C195.81,30.49 196.7,35 197.61,38.65C199.48,46.2 201.35,53.93 202.05,61.59C202.68,68.43 204.45,76.31 210.56,80.24C216.25,83.9 227.56,87.69 232,80.16C239.12,67.95 228.45,50.63 232.41,37.44C234.1,31.81 240.96,28.68 246.53,29.24C254.4,30.04 256.73,39.18 263.46,40.24C268.27,41.02 271.06,30.56 274.76,28.36C280.31,25.07 286.45,26.29 290,31.59C292,34.59 293.33,47.4 298.05,46.26C303.41,44.96 305.9,37.66 311.4,35.65C329.86,28.9 329.54,51.65 332.67,63.02C334.21,68.58 337.08,76.87 343.22,78.72C348.48,80.31 365.72,75.28 373.01,48.18C375.21,39.98 375.58,31.37 378.08,23.74C380.82,15.4 383.25,8 391,2.74C400.94,-3.94 413,1.96 417.1,12.2C419.41,17.91 419.03,28.1 417.61,35.82C416.02,44.44 407.89,50.9 401.89,56.69C374.73,83.03 385.09,95.52 388.06,97.52C407.52,110.9 425.05,76.45 425.05,76.45ZM391.62,481.26C389.62,482.03 385.1,483 383.05,482.1C374.66,478.42 373.44,461.28 379.05,453.47C380.71,451.17 384.19,450.23 388.24,449.47C395.16,448.22 397.68,453.29 397.65,453.23C406.83,469.91 394.53,480.15 391.62,481.26ZM121.81,425.88C117.33,428.94 111.36,433.41 104.05,430.27C100.224,428.51 97.766,424.661 97.78,420.45C98.028,418.414 98.378,416.391 98.83,414.39C100.76,406.24 110.83,397.82 119.1,395.79C122.25,395.01 124.91,396.1 127.25,397.46C131.58,399.98 132.63,403.98 131.63,410.84C130.7,417.31 126.55,421.69 121.81,425.88ZM542.09,395.16C540.32,399.16 527.84,402.32 519.31,389.73C516.95,386.24 512.73,380.01 512.62,375.31C512.55,372.31 512.73,369.07 514.08,367.16C516.61,363.59 524.21,364.1 528.5,366.11C529.36,366.51 540.01,374.35 541.88,376.56C546.7,382.29 544.87,390.21 542.09,395.16ZM459.63,41.09C469.06,45.59 460.64,58.94 460.64,58.89C453.39,68.52 447.14,64.89 447.14,64.89C440.76,61.99 446.56,49.36 446.56,49.36C451.93,37.03 459.63,41.09 459.63,41.09ZM323.7,18.77C316.38,22.37 314.55,12.51 315.96,7.28C317.25,3.65 320.13,4.28 322.44,5.19C326.73,6.89 328.14,16.71 323.7,18.77Z" style="fill:rgb(170,220,236);"/>
    </g>
</svg>
